<svg xmlns="http://www.w3.org/2000/svg" width="64" height="64" fill="none" viewBox="0 0 64 64">
  <defs>
    <linearGradient id="background" x1="10" x2="54" y1="8" y2="56" gradientUnits="userSpaceOnUse">
      <stop stop-color="#14213d"/>
      <stop offset="1" stop-color="#0b1220"/>
    </linearGradient>
    <radialGradient id="glow" cx="0" cy="0" r="1" gradientTransform="translate(30 20) rotate(52) scale(32 24)" gradientUnits="userSpaceOnUse">
      <stop stop-color="#f8fafc" stop-opacity=".24"/>
      <stop offset="1" stop-color="#f8fafc" stop-opacity="0"/>
    </radialGradient>
    <filter id="shadow" x="7" y="39" width="50" height="13" color-interpolation-filters="sRGB" filterUnits="userSpaceOnUse">
      <feFlood flood-opacity="0" result="BackgroundImageFix"/>
      <feBlend in="SourceGraphic" in2="BackgroundImageFix" result="shape"/>
      <feGaussianBlur result="effect1_foregroundBlur_0_1" stdDeviation="2"/>
    </filter>
  </defs>

  <rect width="56" height="56" x="4" y="4" fill="url(#background)" rx="18"/>
  <rect width="56" height="56" x="4" y="4" fill="url(#glow)" rx="18"/>
  <path stroke="#bfdbfe" stroke-linecap="round" stroke-opacity=".22" stroke-width="1.6" d="M16 16.5c4.6-4.2 11.1-6.2 19.6-5.9 6.4.2 10.9 1.6 14.4 4.4"/>

  <g filter="url(#shadow)">
    <ellipse cx="32" cy="45.5" fill="#020617" fill-opacity=".82" rx="18.5" ry="2.8"/>
  </g>
  <rect width="36" height="3" x="14" y="44" fill="#1e293b" rx="1.5"/>

  <g>
    <rect width="10" height="25" x="15" y="17" fill="#f59e0b" rx="2.8"/>
    <rect width="1.2" height="22.2" x="22.8" y="18.4" fill="#f8fafc" fill-opacity=".92" rx=".6"/>
    <rect width="4.8" height="1.5" x="16.6" y="21" fill="#fef3c7" fill-opacity=".9" rx=".75"/>
    <rect width="3.4" height="1.15" x="16.6" y="24.2" fill="#fef3c7" fill-opacity=".62" rx=".575"/>
  </g>

  <g transform="rotate(14 33 42)">
    <rect width="10" height="26" x="28" y="16" fill="#fb7185" rx="2.8"/>
    <rect width="1.2" height="23.2" x="35.8" y="17.4" fill="#f8fafc" fill-opacity=".92" rx=".6"/>
    <rect width="4.8" height="1.5" x="29.6" y="20" fill="#ffe4e6" fill-opacity=".9" rx=".75"/>
    <rect width="3.4" height="1.15" x="29.6" y="23.2" fill="#ffe4e6" fill-opacity=".62" rx=".575"/>
  </g>

  <g transform="rotate(34 45 42)">
    <rect width="10" height="23" x="40" y="19" fill="#38bdf8" rx="2.8"/>
    <rect width="1.2" height="20.2" x="47.8" y="20.4" fill="#f8fafc" fill-opacity=".92" rx=".6"/>
    <rect width="4.8" height="1.5" x="41.6" y="23" fill="#e0f2fe" fill-opacity=".9" rx=".75"/>
    <rect width="3.4" height="1.15" x="41.6" y="26.2" fill="#e0f2fe" fill-opacity=".62" rx=".575"/>
  </g>
</svg>
